<svg version="1.1" id="Layer_1" xmlns="http://www.w3.org/2000/svg" xmlns:xlink="http://www.w3.org/1999/xlink" x="0px" y="0px" viewBox="0 0 48 48" style="enable-background:new 0 0 48 48;" xml:space="preserve" width="48" height="48">
<rect x="2" y="9" style="fill:#33691E;" width="44" height="30"/>
<path style="fill:#FFFFFF;" d="M20.989,17c-0.023-0.001-0.057,0.012-0.106,0.041c-0.108,0.073-0.323,0.296-0.33,0.554&#10;&#9;c-0.007,0.145-0.034,0.145,0.061,0.237c0.069,0.099,0.137,0.089,0.276,0.017c0.08-0.059,0.107-0.096,0.133-0.194&#10;&#9;c0.033-0.165-0.174,0.078-0.2-0.106c-0.046-0.17,0.086-0.241,0.211-0.406C21.038,17.065,21.04,17.002,20.989,17L20.989,17z"/>
<path style="fill:#FFFFFF;" d="M23.008,17.011c-0.039,0.005-0.086,0.055-0.152,0.174c-0.047,0.125-0.25,0.314-0.104,0.704&#10;&#9;c0.12,0.247,0.169,0.649,0.115,1.096c-0.083,0.127-0.102,0.171-0.211,0.298c-0.153,0.165-0.319,0.123-0.446,0.061&#10;&#9;c-0.119-0.08-0.212-0.121-0.267-0.376c0.01-0.406,0.033-1.07-0.041-1.211c-0.109-0.218-0.29-0.14-0.367-0.074&#10;&#9;c-0.37,0.339-0.553,0.91-0.665,1.365c-0.103,0.331-0.212,0.236-0.289,0.102c-0.187-0.175-0.2-1.546-0.426-1.321&#10;&#9;c-0.362,1.034,0.208,2.166,0.602,2.056c0.285,0.118,0.465-0.424,0.582-1.017c0.08-0.166,0.141-0.186,0.182-0.1&#10;&#9;c-0.011,0.789,0.057,0.965,0.259,1.204c0.452,0.349,0.826,0.044,0.856,0.015c0.029-0.029,0.352-0.352,0.352-0.352&#10;&#9;c0.078-0.082,0.182-0.087,0.293-0.015c0.108,0.098,0.094,0.266,0.324,0.383c0.194,0.078,0.608,0.019,0.704-0.148&#10;&#9;c0.129-0.221,0.161-0.298,0.22-0.382c0.092-0.123,0.25-0.068,0.25-0.03c-0.015,0.068-0.107,0.136-0.044,0.259&#10;&#9;c0.11,0.082,0.135,0.029,0.2,0.011c0.229-0.11,0.402-0.607,0.402-0.607c0.01-0.186-0.095-0.172-0.163-0.133&#10;&#9;c-0.088,0.054-0.093,0.072-0.182,0.126c-0.112,0.017-0.33,0.091-0.437-0.076c-0.11-0.2-0.11-0.48-0.194-0.682&#10;&#9;c0-0.015-0.147-0.318-0.011-0.337c0.068,0.013,0.216,0.051,0.239-0.072c0.072-0.12-0.155-0.46-0.309-0.632&#10;&#9;c-0.134-0.147-0.319-0.165-0.498-0.015c-0.126,0.115-0.107,0.244-0.132,0.367c-0.032,0.14-0.026,0.314,0.117,0.5&#10;&#9;c0.125,0.247,0.353,0.564,0.278,1.011c0,0-0.132,0.213-0.365,0.185c-0.097-0.021-0.255-0.063-0.339-0.683&#10;&#9;c-0.064-0.47,0.016-1.127-0.183-1.435C23.111,17.115,23.072,17.002,23.008,17.011L23.008,17.011z"/>
<path style="fill:#FFFFFF;" d="M22.369,17.061c-0.06,0.005-0.127,0.075-0.182,0.211c-0.047,0.103-0.104,0.643-0.094,0.643&#10;&#9;c-0.037,0.161,0.168,0.229,0.261,0.022c0.14-0.378,0.141-0.54,0.15-0.7C22.482,17.115,22.429,17.056,22.369,17.061L22.369,17.061z"/>
<path style="fill:#FFFFFF;" d="M24.729,17.104c-0.062,0.006-0.111,0.042-0.13,0.133c-0.025,0.215-0.012,0.332,0.024,0.511&#10;&#9;c0.028,0.119,0.202,0.319,0.287,0.435c0.409,0.549,0.802,1.101,1.182,1.672c0.06,0.424,0.103,0.839,0.132,1.252&#10;&#9;c0.062,0.906,0.08,2.033,0.024,2.987c0.17,0.007,0.442-0.274,0.537-0.685c0.062-0.569-0.022-1.729-0.028-2.065&#10;&#9;c-0.004-0.139-0.013-0.306-0.022-0.48c0.442,0.722,0.87,1.487,1.291,2.326c0.153-0.073,0.119-0.936,0.03-1.058&#10;&#9;c-0.337-0.725-0.802-1.44-0.95-1.715c-0.054-0.099-0.236-0.377-0.452-0.696c-0.04-0.456-0.083-0.843-0.111-0.959&#10;&#9;c-0.069-0.482,0.198,0.054,0.161-0.226c-0.087-0.482-0.353-0.809-0.667-1.25c-0.101-0.143-0.099-0.173-0.256,0.035&#10;&#9;c-0.093,0.212-0.092,0.388-0.065,0.554c-0.041-0.06-0.092-0.131-0.165-0.219c-0.271-0.233-0.288-0.245-0.513-0.435&#10;&#9;C24.967,17.172,24.832,17.094,24.729,17.104L24.729,17.104z"/>
<path style="fill:#FFFFFF;" d="M31.722,17.176c-0.03-0.005-0.063,0.01-0.1,0.065c-0.071,0.062-0.147,0.174-0.144,0.319&#10;&#9;c0.017,0.254,0.062,0.514,0.08,0.769c0.006,0.034,0.012,0.068,0.019,0.102c-0.027-0.035-0.051-0.062-0.065-0.076&#10;&#9;c-0.495-0.52,0.228-0.085-0.094-0.487c-0.272-0.299-0.352-0.394-0.585-0.574c-0.117-0.076-0.188-0.22-0.226,0.026&#10;&#9;c-0.015,0.216-0.031,0.466-0.017,0.648c-0.001,0.101,0.104,0.292,0.194,0.404c0.331,0.406,0.668,0.838,1.008,1.289&#10;&#9;c0.071,0.92,0.09,1.763,0.163,2.684c-0.01,0.394-0.131,0.917-0.246,0.967c0,0-0.175,0.101-0.293-0.011&#10;&#9;c-0.085-0.034-0.426-0.569-0.426-0.569c-0.174-0.16-0.291-0.114-0.415,0c-0.342,0.331-0.497,0.95-0.73,1.376&#10;&#9;c-0.06,0.095-0.229,0.176-0.417-0.007c-0.477-0.652-0.198-1.579-0.257-1.341c-0.425,0.479-0.237,1.272-0.141,1.443&#10;&#9;c0.14,0.28,0.253,0.46,0.526,0.598c0.248,0.183,0.442,0.069,0.548-0.059c0.25-0.259,0.253-0.921,0.37-1.052&#10;&#9;c0.082-0.241,0.288-0.199,0.389-0.093c0.097,0.14,0.212,0.231,0.356,0.307c0.233,0.206,0.511,0.243,0.785,0.056&#10;&#9;c0.187-0.105,0.309-0.242,0.419-0.511c0.118-0.315,0.059-1.964,0.033-2.882c0.176,0.248,0.35,0.501,0.522,0.757&#10;&#9;c0.076,0.806,0.11,1.599,0.085,2.36c-0.018,0.151,0.528-0.452,0.524-0.737c-0.002-0.25,0-0.476,0-0.687&#10;&#9;c0.265,0.423,0.521,0.852,0.763,1.287c0.15-0.08,0.099-0.929,0.004-1.046c-0.254-0.425-0.578-0.885-0.83-1.241&#10;&#9;c-0.05-0.449-0.117-0.979-0.148-1.141c-0.048-0.253-0.096-0.633-0.169-0.933c-0.02-0.117-0.08-0.492-0.061-0.528&#10;&#9;c0.03-0.084,0.141,0.003,0.196-0.094c0.082-0.09-0.286-1.043-0.472-1.315c-0.067-0.122-0.189-0.08-0.339,0.119&#10;&#9;c-0.139,0.13-0.088,0.428-0.035,0.711c0.138,0.722,0.262,1.456,0.359,2.189c-0.181-0.269-0.401-0.594-0.619-0.907&#10;&#9;c-0.006-0.03-0.028-0.141-0.028-0.143c0-0.013-0.03-0.59-0.056-0.728c-0.004-0.056-0.018-0.072,0.041-0.065&#10;&#9;c0.062,0.052,0.071,0.055,0.109,0.072c0.063,0.011,0.117-0.094,0.08-0.193c-0.194-0.358-0.388-0.717-0.582-1.074&#10;&#9;C31.778,17.205,31.752,17.18,31.722,17.176L31.722,17.176z"/>
<path style="fill:#FFFFFF;" d="M13.673,17.194c-0.107-0.003-0.226,0.064-0.18,0.193c-0.027,0.07,0.21,0.308,0.252,0.439&#10;&#9;c0.037,0.093-0.037,0.393,0.041,0.42c0.072,0.031,0.17-0.207,0.207-0.428c0.021-0.121,0.005-0.534-0.276-0.619&#10;&#9;C13.703,17.197,13.689,17.195,13.673,17.194L13.673,17.194z"/>
<path style="fill:#FFFFFF;" d="M34.234,17.197c-0.024,0.002-0.054,0.042-0.1,0.139c-0.11,0.18-0.148,0.502-0.104,0.787&#10;&#9;c0.265,1.79,0.461,3.523,0.502,5.11c-0.023,0.151-0.029,0.231-0.1,0.42c-0.156,0.2-0.329,0.451-0.491,0.572&#10;&#9;c-0.162,0.121-0.508,0.236-0.62,0.326c-0.358,0.207-0.36,0.445-0.07,0.454c0.499-0.058,1.09-0.099,1.496-0.713&#10;&#9;c0.109-0.172,0.237-0.639,0.243-0.924c0.038-1.674-0.021-3.311-0.272-4.521c-0.016-0.118-0.068-0.389-0.048-0.424&#10;&#9;c0.032-0.083,0.196,0.008,0.254-0.087c0.085-0.087-0.422-0.737-0.6-1.015C34.287,17.251,34.265,17.194,34.234,17.197L34.234,17.197z&#10;&#9;"/>
<path style="fill:#FFFFFF;" d="M29,17.224c-0.021,0.004-0.051,0.035-0.107,0.109c-0.139,0.456-0.188,0.828-0.135,1.111&#10;&#9;c0.358,1.869,0.725,3.572,0.667,5.351c0.17,0.001,0.366-0.389,0.45-0.774c0.046-0.531-0.031-0.855-0.044-1.167&#10;&#9;c-0.014-0.312-0.353-2.846-0.422-3.082c-0.083-0.447,0.33-0.059,0.285-0.319c-0.143-0.328-0.5-0.804-0.611-1.089&#10;&#9;C29.039,17.289,29.034,17.218,29,17.224L29,17.224z"/>
<path style="fill:#FFFFFF;" d="M16.256,17.26c-0.044,0.008-0.086,0.044-0.102,0.104c-0.01,0.039,0.017,0.104-0.019,0.124&#10;&#9;c-0.02,0.021-0.098,0.007-0.094-0.102c0-0.035-0.025-0.071-0.041-0.093c-0.015-0.01-0.026-0.013-0.054-0.013&#10;&#9;c-0.034,0.001-0.033,0.01-0.052,0.039c-0.008,0.029-0.019,0.057-0.019,0.091c-0.004,0.039-0.02,0.052-0.048,0.057&#10;&#9;c-0.032,0-0.024,0.003-0.05-0.013c-0.015-0.017-0.033-0.023-0.033-0.052c0-0.03-0.008-0.077-0.017-0.096&#10;&#9;c-0.014-0.018-0.035-0.027-0.059-0.033c-0.133,0-0.143,0.153-0.135,0.211c-0.01,0.011-0.015,0.282,0.167,0.357&#10;&#9;c0.244,0.116,0.701,0.067,0.682-0.326c0-0.035-0.008-0.152-0.011-0.183C16.345,17.274,16.299,17.252,16.256,17.26L16.256,17.26z"/>
<path style="fill:#FFFFFF;" d="M19.526,17.263c-0.084,0.004-0.159,0.028-0.222,0.061c-0.162,0.155-0.199,0.403-0.072,0.557&#10;&#9;c0.124,0.058,0.247,0.183,0.165,0.252c-0.35,0.374-1.262,0.999-1.308,1.113c0,0.001-0.002,0.003-0.002,0.004&#10;&#9;c0,0.001,0,0.003,0,0.004c0,0,0,0.002,0,0.002c0,0.001,0.001,0.003,0.002,0.004c0,0,0.002,0.002,0.002,0.002c0,0,0.002,0,0.002,0&#10;&#9;c0,0,0.001,0.002,0.002,0.002c0,0,0.001,0,0.002,0c0,0,0.002,0.002,0.002,0.002c0.046,0.031,0.617,0.03,0.68,0.002&#10;&#9;c0,0,0.001-0.002,0.002-0.002c0,0,0.002,0,0.002,0c0,0,0-0.002,0-0.002c0.196-0.072,1.126-1.135,1.126-1.135&#10;&#9;c-0.048-0.041-0.093-0.072-0.141-0.113c-0.052-0.045-0.046-0.089,0-0.133c0.23-0.134,0.157-0.429,0.037-0.563&#10;&#9;C19.705,17.274,19.611,17.259,19.526,17.263L19.526,17.263z"/>
<path style="fill:#FFFFFF;" d="M28.076,17.267c-0.024,0.002-0.054,0.04-0.1,0.137c-0.11,0.18-0.185,0.494-0.176,0.787&#10;&#9;c0.238,1.648,0.311,3.091,0.467,4.74c0.013,0.159-0.011,0.391-0.117,0.483c-0.392,0.409-0.957,0.914-1.572,1.146&#10;&#9;c-0.066,0.074,0.165,0.391,0.463,0.391c0.499-0.058,0.938-0.338,1.345-1.076c0.109-0.172,0.3-0.54,0.306-0.826&#10;&#9;c0.038-1.674-0.084-2.976-0.335-4.186c-0.016-0.118-0.005-0.257,0.015-0.293c0.032-0.039,0.142,0.001,0.2-0.094&#10;&#9;c0.085-0.087-0.228-0.809-0.406-1.087C28.129,17.319,28.107,17.264,28.076,17.267L28.076,17.267z"/>
<path style="fill:#FFFFFF;" d="M14.831,17.317c-0.069,0.008-0.134,0.064-0.165,0.139c-0.012,0.264-0.013,0.529,0.017,0.772&#10;&#9;c0.12,0.427,0.158,0.803,0.217,1.241c0.016,0.586-0.339,0.254-0.322-0.037c0.082-0.377,0.06-0.972-0.013-1.122&#10;&#9;c-0.058-0.151-0.125-0.188-0.265-0.163c-0.111-0.007-0.399,0.307-0.48,0.826c0,0-0.067,0.266-0.096,0.504&#10;&#9;c-0.039,0.268-0.217,0.458-0.341-0.037c-0.107-0.36-0.173-1.247-0.352-1.039c-0.051,0.692-0.112,1.91,0.476,2.035&#10;&#9;c0.712,0.068,0.318-1.203,0.576-1.434c0.049-0.114,0.139-0.116,0.146,0.028v1.08c-0.007,0.351,0.224,0.455,0.404,0.528&#10;&#9;c0.187-0.014,0.31-0.009,0.383,0.172c0.029,0.622,0.06,1.246,0.089,1.869c0,0,0.431,0.124,0.452-1.05&#10;&#9;c0.021-0.689-0.137-1.268-0.044-1.402c0.003-0.132,0.172-0.138,0.289-0.074c0.186,0.131,0.268,0.293,0.557,0.228&#10;&#9;c0.44-0.121,0.705-0.335,0.711-0.672c-0.026-0.321-0.063-0.642-0.202-0.963c0.019-0.058-0.084-0.21-0.065-0.269&#10;&#9;c0.079,0.124,0.199,0.114,0.226,0c-0.075-0.247-0.191-0.483-0.38-0.585c-0.156-0.137-0.383-0.108-0.467,0.178&#10;&#9;c-0.039,0.329,0.119,0.72,0.359,1.039c0.051,0.125,0.122,0.332,0.091,0.519c-0.128,0.073-0.254,0.043-0.361-0.07&#10;&#9;c0,0-0.35-0.262-0.35-0.32c0.093-0.595,0.02-0.663-0.031-0.828c-0.036-0.228-0.144-0.3-0.232-0.456&#10;&#9;c-0.088-0.093-0.206-0.093-0.263,0c-0.155,0.268-0.082,0.844,0.03,1.102c0.081,0.237,0.205,0.385,0.146,0.385&#10;&#9;c-0.048,0.134-0.148,0.103-0.22-0.052c-0.103-0.32-0.124-0.796-0.124-1.011c-0.031-0.266-0.065-0.835-0.241-0.98&#10;&#9;C14.94,17.333,14.885,17.311,14.831,17.317L14.831,17.317z"/>
<path style="fill:#FFFFFF;" d="M17.33,17.321c-0.035,0.004-0.074,0.025-0.12,0.035c-0.151,0.048-0.293,0.179-0.248,0.433&#10;&#9;c0.179,1.086,0.295,1.916,0.474,3.002c0.027,0.127-0.079,0.295-0.217,0.278c-0.234-0.158-0.292-0.479-0.691-0.465&#10;&#9;c-0.289,0.003-0.618,0.318-0.659,0.62c-0.048,0.241-0.065,0.501,0,0.711c0.203,0.244,0.446,0.218,0.659,0.163&#10;&#9;c0.175-0.072,0.32-0.245,0.382-0.204c0,0,0.002,0,0.002,0c0,0,0,0.002,0,0.002c0.038,0.067-0.004,0.632-0.826,1.069&#10;&#9;c-0.505,0.227-0.908,0.281-1.124-0.132c-0.134-0.258,0.01-1.24-0.32-1.013c-0.976,2.517,2.288,2.868,2.652,0.104&#10;&#9;c0.024-0.078,0.096-0.156,0.146-0.137c0.022,0.009,0.043,0.04,0.05,0.096c-0.076,2.503-2.525,2.675-2.941,1.887&#10;&#9;c-0.103-0.186-0.134-0.599-0.144-0.846c-0.019-0.15-0.056-0.236-0.1-0.27c-0.099-0.075-0.233,0.12-0.261,0.457&#10;&#9;c-0.041,0.272-0.03,0.346-0.03,0.607c0.131,1.977,3.283,1.128,3.795-0.506c0.254-0.844-0.005-1.481,0.08-1.559&#10;&#9;c0.001-0.001,0.003-0.001,0.004-0.002c0.001,0,0.003-0.001,0.004-0.002c0.001,0,0.003-0.002,0.004-0.002&#10;&#9;c0.003-0.001,0.008-0.002,0.011-0.002c0.313,0.337,0.752,0.043,0.848-0.074c0.041-0.058,0.145-0.096,0.217-0.02&#10;&#9;c0.244,0.175,0.672,0.093,0.761-0.217c0.052-0.303,0.095-0.614,0.106-0.937c-0.159,0.049-0.287,0.086-0.339,0.141&#10;&#9;c-0.012,0.013-0.021,0.028-0.024,0.044c-0.014,0.089-0.027,0.179-0.041,0.269c-0.001,0.007-0.004,0.014-0.007,0.02&#10;&#9;c-0.007,0.011-0.018,0.021-0.03,0.028c-0.056,0.031-0.154,0.013-0.159-0.069c-0.076-0.344-0.387-0.389-0.576,0.144&#10;&#9;c-0.127,0.103-0.359,0.123-0.383-0.031c0.031-0.358-0.113-0.406-0.402-0.237c-0.093-0.708-0.185-1.385-0.278-2.093&#10;&#9;c0.12-0.003,0.231,0.084,0.341-0.054c-0.119-0.37-0.371-1.124-0.513-1.195c-0.001-0.001-0.003-0.001-0.004-0.002&#10;&#9;c-0.006-0.008-0.014-0.015-0.02-0.02c-0.003-0.002-0.007-0.006-0.009-0.007c-0.003-0.002-0.007-0.004-0.009-0.006&#10;&#9;c-0.006-0.003-0.013-0.006-0.019-0.007C17.356,17.321,17.343,17.32,17.33,17.321L17.33,17.321z"/>
<path style="fill:#FFFFFF;" d="M27.07,17.327c-0.125-0.004-0.263,0.075-0.209,0.232c-0.031,0.085,0.268,0.375,0.317,0.533&#10;&#9;c0.087,0.243-0.066,0.476,0.024,0.509c0.083,0.038,0.199-0.251,0.243-0.519c0.05-0.216-0.104-0.659-0.322-0.75&#10;&#9;C27.105,17.328,27.088,17.327,27.07,17.327L27.07,17.327z"/>
<path style="fill:#FFFFFF;" d="M19.482,17.593c0.057-0.006,0.126,0.046,0.159,0.12c0.036,0.079,0.018,0.154-0.041,0.169&#10;&#9;c-0.059,0.014-0.134-0.038-0.17-0.117c-0.036-0.079-0.018-0.156,0.041-0.17C19.474,17.594,19.478,17.594,19.482,17.593z"/>
<path style="fill:#FFFFFF;" d="M33.558,17.958c-0.114-0.004-0.238,0.082-0.189,0.252c-0.029,0.092,0.243,0.406,0.287,0.578&#10;&#9;c0.04,0.122-0.06,0.516,0.022,0.552c0.076,0.041,0.183-0.272,0.222-0.561c0.022-0.158-0.095-0.714-0.294-0.813&#10;&#9;C33.591,17.961,33.574,17.959,33.558,17.958L33.558,17.958z"/>
<path style="fill:#FFFFFF;" d="M25.775,18.151c0.01,0.046,0.021,0.093,0.028,0.141c0.023,0.103,0.043,0.205,0.065,0.306&#10;&#9;c-0.09-0.124-0.164-0.224-0.196-0.259C25.468,18.096,25.676,18.179,25.775,18.151L25.775,18.151z"/>
<path style="fill:#FFFFFF;" d="M27.568,19.032c-0.044,0.008-0.086,0.046-0.102,0.106c-0.01,0.039,0.019,0.103-0.017,0.122&#10;&#9;c-0.02,0.021-0.1,0.009-0.096-0.1c0-0.035-0.025-0.073-0.041-0.094c-0.015-0.01-0.026-0.013-0.054-0.013&#10;&#9;c-0.034,0.001-0.033,0.01-0.052,0.039c-0.008,0.029-0.019,0.058-0.019,0.091c-0.004,0.039-0.018,0.052-0.046,0.057&#10;&#9;c-0.032,0-0.026,0.003-0.052-0.013c-0.015-0.017-0.033-0.023-0.033-0.052c0-0.03-0.008-0.077-0.017-0.096&#10;&#9;c-0.014-0.018-0.035-0.025-0.059-0.031c-0.133,0-0.141,0.152-0.133,0.209c-0.01,0.011-0.017,0.284,0.165,0.359&#10;&#9;c0.244,0.116,0.703,0.065,0.683-0.328c0-0.035-0.01-0.152-0.013-0.183C27.658,19.047,27.612,19.025,27.568,19.032L27.568,19.032z"/>
<path style="fill:#FFFFFF;" d="M19.382,19.114c-0.03-0.003-0.069,0.008-0.115,0.035c-0.216,0.117-0.299,0.463-0.165,0.665&#10;&#9;c0.125,0.178,0.324,0.113,0.35,0.113c0.211,0.026,0.337-0.396,0.337-0.396s0.006-0.119-0.244,0.106&#10;&#9;c-0.106,0.02-0.12-0.018-0.146-0.078c-0.022-0.11-0.017-0.221,0.033-0.332C19.456,19.161,19.432,19.119,19.382,19.114L19.382,19.114&#10;&#9;z"/>
<path style="fill:#FFFFFF;" d="M30.954,19.168c-0.12-0.006-0.247,0.072-0.28,0.235c0,0.096,0.044,0.149,0.035,0.237&#10;&#9;c-0.012,0.05-0.064,0.083-0.187,0.024c0.019-0.018-0.08-0.157-0.08-0.157c-0.096-0.058-0.224,0.003-0.307,0.057&#10;&#9;c-0.046,0.083-0.08,0.226-0.028,0.372c0.138,0.254,0.61,0.689,0.835,0.693c0.004-0.229,0.026-0.534,0.039-0.724&#10;&#9;c0.005-0.072,0.022-0.151,0.091-0.169c0.069-0.018,0.188,0.069,0.189-0.006c-0.012-0.146-0.042-0.361-0.124-0.463&#10;&#9;C31.095,19.205,31.026,19.171,30.954,19.168L30.954,19.168z"/>
<path style="fill:#FFFFFF;" d="M21.375,19.966c-0.003,0.001-0.006,0.004-0.009,0.006c-0.001,0.001-0.004,0.003-0.006,0.004&#10;&#9;c-0.024,0.018-0.052,0.059-0.115,0.104c-0.106,0.121-0.125,0.205-0.119,0.446c0.006,0.026,0.201,0.568,0.367,0.95&#10;&#9;c0.112,0.397,0.215,0.851,0.139,1.28c-0.261,0.567-0.786,1.076-1.293,1.352c-0.258,0.083-0.481,0.055-0.541-0.002&#10;&#9;c0,0-0.001-0.001-0.002-0.002c-0.148-0.1-0.152-0.277-0.143-0.307c0,0,0-0.002,0-0.002c0,0,0.002-0.002,0.002-0.002&#10;&#9;c0.428-0.298,0.916-0.539,1.298-1.343c0.113-0.307,0.147-0.492,0.035-0.967c-0.044-0.177-0.098-0.323-0.219-0.448&#10;&#9;c0,0,0.002-0.002,0.002-0.002c0.073-0.035,0.262,0.104,0.291,0.017c-0.045-0.227-0.198-0.531-0.372-0.687&#10;&#9;c-0.152-0.138-0.318-0.154-0.457-0.028c-0.157,0.087-0.19,0.401-0.115,0.676c0.084,0.207,0.311,0.243,0.472,0.659&#10;&#9;c0,0,0,0.002,0,0.002c0.003,0.026,0.055,0.311-0.026,0.426c-0.066,0.206-0.914,0.875-0.974,0.915&#10;&#9;c-0.001,0.001-0.005,0.003-0.006,0.004c0,0-0.002,0.002-0.002,0.002c0,0-0.001,0.001-0.002,0.002c0,0-0.002,0.002-0.002,0.002&#10;&#9;c0,0-0.002,0-0.002,0c0,0-0.001,0-0.002,0c0,0-0.002-0.002-0.002-0.002c0,0,0-0.002,0-0.002c0-0.001-0.002-0.003-0.002-0.004&#10;&#9;c-0.003-0.017,0.002-0.059,0-0.128c-0.006-0.125,0.046-0.409,0.043-0.457c0,0,0-0.002,0-0.002c0,0-0.002-0.002-0.002-0.002&#10;&#9;c0,0,0-0.002,0-0.002c0,0-0.002,0-0.002,0c-0.28,0.181-0.373,0.736-0.424,0.9c-0.71,0.49-1.516,0.855-1.98,1.352&#10;&#9;c-0.242,0.378,1.666-0.434,1.887-0.532c0.002,0.001,0.004,0.004,0.006,0.006c0.042,0.046,0.046,0.208,0.172,0.354&#10;&#9;c0.198,0.269,0.62,0.434,1.03,0.332c0.688-0.249,1.084-0.717,1.487-1.237c0.058-0.084,0.148-0.15,0.232-0.085&#10;&#9;c0.277,0.621,1.076,1.062,2.11,1.108c0.239-0.291,0.125-0.434,0.028-0.495c-0.03-0.02-0.514-0.209-0.589-0.396&#10;&#9;c-0.047-0.175,0.068-0.33,0.298-0.446c0.663-0.08,1.315-0.169,1.947-0.372c0.006-0.212,0.131-0.529,0.215-0.667&#10;&#9;c0.058-0.096,0.095-0.105,0.109-0.119c0,0,0.001-0.001,0.002-0.002c0,0,0.002-0.002,0.002-0.002c0,0,0.002-0.002,0.002-0.002&#10;&#9;c0-0.001,0-0.003,0-0.004c0-0.004,0-0.011-0.002-0.019l-0.107-0.063l-2.117-0.009c-0.026-0.01-0.046-0.02-0.057-0.03&#10;&#9;c-0.001-0.001-0.003-0.003-0.004-0.004c0,0-0.001-0.001-0.002-0.002c0,0-0.002-0.001-0.002-0.002c0-0.001-0.002-0.003-0.002-0.004&#10;&#9;c0,0-0.002-0.002-0.002-0.002c0,0,0-0.002,0-0.002c0,0-0.002-0.002-0.002-0.002c0,0,0-0.002,0-0.002c0,0,0-0.002,0-0.002&#10;&#9;c0,0,0-0.002,0-0.002c0,0,0-0.002,0-0.002c0,0,0-0.001,0-0.002c0,0,0-0.002,0-0.002c0,0,0-0.002,0-0.002c0,0,0-0.002,0-0.002&#10;&#9;c0,0,0.002-0.002,0.002-0.002c0-0.001,0.001-0.003,0.002-0.004c0.01-0.014,0.035-0.027,0.067-0.039&#10;&#9;c0.506-0.069,1.404-0.216,1.463-1.08c-0.009-0.45-0.193-0.744-0.745-0.826c-0.406,0.031-0.695,0.424-0.648,0.856&#10;&#9;c-0.019,0.116,0.039,0.345-0.08,0.37c-0.778,0.071-1.627,0.559-1.656,0.908c0,0-0.002,0-0.002,0c0,0-0.002,0.002-0.002,0.002&#10;&#9;c-0.001,0-0.003,0.001-0.004,0.002c-0.001,0-0.003,0-0.004,0c-0.001,0-0.004,0.002-0.006,0.002c0,0-0.001,0-0.002,0&#10;&#9;c-0.001,0-0.003,0-0.004,0c0,0-0.001,0-0.002,0c-0.001,0-0.003,0-0.004,0c-0.002,0-0.006-0.001-0.007-0.002&#10;&#9;c-0.051-0.014-0.116-0.098-0.106-0.215c-0.03-0.603-0.226-1.286-0.533-1.811c-0.11-0.11-0.158-0.154-0.189-0.159&#10;&#9;c-0.001,0-0.003,0-0.004,0c-0.001,0-0.004,0-0.006,0c0,0-0.002,0-0.002,0c0,0-0.002,0-0.002,0&#10;&#9;C21.377,19.966,21.376,19.966,21.375,19.966L21.375,19.966z"/>
<path style="fill:#FFFFFF;" d="M23.402,20.284c-0.044,0.008-0.086,0.044-0.102,0.104c-0.01,0.039,0.019,0.104-0.017,0.124&#10;&#9;c-0.02,0.021-0.1,0.009-0.096-0.1c0-0.035-0.025-0.073-0.041-0.094c-0.015-0.01-0.024-0.013-0.052-0.013&#10;&#9;c-0.034,0.001-0.035,0.01-0.054,0.039c-0.008,0.029-0.019,0.058-0.019,0.091c-0.004,0.039-0.018,0.052-0.046,0.057&#10;&#9;c-0.032,0-0.024,0.003-0.05-0.013c-0.015-0.017-0.035-0.023-0.035-0.052c0-0.03-0.006-0.077-0.015-0.096&#10;&#9;c-0.013-0.018-0.037-0.025-0.061-0.031c-0.133,0-0.141,0.152-0.133,0.209c-0.01,0.011-0.017,0.284,0.165,0.359&#10;&#9;c0.244,0.116,0.825,0.048,0.683-0.328c0-0.035-0.009-0.152-0.013-0.183C23.491,20.299,23.446,20.277,23.402,20.284L23.402,20.284z"/>
<path style="fill:#FFFFFF;" d="M31.579,20.62c-0.006-0.001-0.013-0.001-0.02,0.002c0,0-1.13,0.804-1.158,0.832&#10;&#9;c-0.112,0.1-0.056,0.45,0,0.409c0.081,0.031,1.218-0.74,1.196-0.83C31.647,21.036,31.671,20.636,31.579,20.62L31.579,20.62z"/>
<path style="fill:#FFFFFF;" d="M24.469,20.739c0.046-0.005,0.107,0.011,0.165,0.044c0.084,0.049,0.136,0.122,0.13,0.176&#10;&#9;c0,0.001,0,0.004,0,0.006c0,0.001-0.003,0.004-0.004,0.006c0,0.001-0.001,0.004-0.002,0.006c0,0.001-0.001,0.003-0.002,0.004&#10;&#9;c0,0.001-0.001,0.003-0.002,0.004c-0.003,0.005-0.007,0.009-0.011,0.013c-0.041,0.038-0.134,0.032-0.222-0.019&#10;&#9;c-0.084-0.048-0.135-0.123-0.13-0.176c0-0.001,0.002-0.004,0.002-0.006c0.001-0.007,0.004-0.013,0.007-0.019&#10;&#9;c0.001-0.002,0.002-0.005,0.004-0.007c0,0,0.002-0.001,0.002-0.002c0.002-0.003,0.006-0.007,0.009-0.009&#10;&#9;C24.429,20.749,24.448,20.741,24.469,20.739L24.469,20.739z"/>
<path style="fill:#FFFFFF;" d="M14.577,20.943c-0.585,0.011-1.442,0.767-1.465,1.187c0.618-0.297,1.224-0.582,1.852-0.889&#10;&#9;C14.862,21.089,14.958,20.953,14.577,20.943L14.577,20.943z"/>
<path style="fill:#FFFFFF;" d="M16.473,21.206c0.057,0.001,0.118,0.029,0.15,0.109c0.029,0.074,0.001,0.151-0.033,0.189&#10;&#9;c0,0,0,0.002,0,0.002c-0.001,0.001-0.001,0.003-0.002,0.004c-0.025,0.032-0.111,0.019-0.172,0.019&#10;&#9;c-0.074-0.003-0.111-0.015-0.156-0.076c-0.021-0.067,0.044-0.133,0.072-0.183c0,0,0.002-0.001,0.002-0.002&#10;&#9;c0.003-0.005,0.008-0.01,0.013-0.015c0.022-0.02,0.061-0.039,0.102-0.044C16.457,21.206,16.465,21.205,16.473,21.206L16.473,21.206z&#10;&#9;"/>
<path style="fill:#FFFFFF;" d="M31.359,21.438c-0.104,0.013-0.203,0.111-0.157,0.269c-0.029,0.092,0.141,0.416,0.185,0.587&#10;&#9;c0.04,0.122-0.051,0.467,0.031,0.504c0.076,0.041,0.276-0.205,0.269-0.513c0.022-0.158-0.056-0.742-0.256-0.841&#10;&#9;C31.408,21.438,31.383,21.435,31.359,21.438L31.359,21.438z"/>
<path style="fill:#FFFFFF;" d="M18.881,21.597c-0.091,0.006-0.172,0.055-0.136,0.183c-0.005,0.093,0.257,0.206,0.273,0.422&#10;&#9;c0.038,0.089-0.056,0.373,0.022,0.4c0.072,0.03,0.171-0.197,0.209-0.407c0.021-0.115-0.09-0.518-0.279-0.59&#10;&#9;C18.942,21.598,18.912,21.595,18.881,21.597L18.881,21.597z"/>
<path style="fill:#FFFFFF;" d="M22.627,22.109c0.007,0,0.013,0,0.02,0c0.001,0,0.002,0,0.004,0c0.233,0.063,0.578,0.07,0.876,0.101&#10;&#9;c0.243,0.015,0.364,0.206,0.136,0.286c-0.225,0.077-0.441,0.137-0.442,0.462c0.03,0.161,0.023,0.245-0.002,0.284&#10;&#9;c-0.002,0.003-0.005,0.007-0.007,0.009c0,0-0.002,0.002-0.002,0.002c0,0-0.002,0.002-0.002,0.002c0,0-0.001,0.002-0.002,0.002&#10;&#9;l-0.002,0.002c-0.001,0-0.003,0.002-0.004,0.002c-0.003,0.002-0.007,0.004-0.011,0.005c-0.003,0.001-0.008,0.001-0.011,0.002&#10;&#9;c-0.053,0.008-0.131-0.043-0.189-0.073c-0.139-0.1-0.528-0.341-0.583-0.858C22.399,22.219,22.487,22.118,22.627,22.109&#10;&#9;L22.627,22.109z"/>
<path style="fill:#FFFFFF;" d="M13.479,22.506c-0.015,0-0.044,0.044-0.082,0.094c-0.345,0.549-0.375,1.369-0.185,1.613&#10;&#9;c0.101,0.116,0.268,0.166,0.39,0.13c0.217-0.094,0.312-0.533,0.26-0.693c-0.072-0.113-0.13-0.131-0.202-0.035&#10;&#9;c-0.152,0.309-0.216,0.098-0.229-0.075c-0.023-0.328,0.008-0.63,0.044-0.869C13.494,22.549,13.493,22.506,13.479,22.506&#10;&#9;L13.479,22.506z"/>
<path style="fill:#FFFFFF;" d="M25.221,23.227c-0.026-0.001-0.053,0.003-0.081,0.017c-0.005,0-0.247,0.163-0.324,0.277&#10;&#9;c-0.047,0.036-0.042,0.067-0.027,0.13c0.037,0.085,0.102,0.058,0.176,0.018c0.098-0.013,0.146,0.051,0.138,0.169&#10;&#9;c-0.045,0.147,0.02,0.202,0.02,0.211c0,0.009,0.094,0.09,0.205,0.026c0.234-0.089,0.38-0.176,0.708-0.248&#10;&#9;c0.086-0.002,0.081-0.232-0.055-0.24c-0.178,0.009-0.341,0.018-0.519,0.158c-0.109,0.025-0.128-0.041-0.152-0.101&#10;&#9;c-0.028-0.148,0.062-0.252,0.044-0.363C25.358,23.285,25.298,23.232,25.221,23.227L25.221,23.227z"/>
<path style="fill:#FFFFFF;" d="M32.74,23.508c-0.044,0.001-0.089,0.007-0.156,0.013c-0.072,0.015-0.097,0.047-0.11,0.134&#10;&#9;c0.005,0.132,0.086,0.126,0.169,0.178c0.048,0.061,0.079,0.116-0.004,0.216c-0.078,0.072-0.134,0.111-0.213,0.183&#10;&#9;c-0.037,0.063-0.06,0.16,0.053,0.191c0.209,0.059,0.693-0.256,0.693-0.262c0.078-0.059,0.052-0.17,0.046-0.17&#10;&#9;c-0.046-0.052-0.149-0.021-0.218-0.029c-0.033,0-0.141-0.016-0.09-0.112c0.043-0.06,0.059-0.095,0.088-0.169&#10;&#9;c0.033-0.072,0.004-0.12-0.114-0.16C32.825,23.51,32.783,23.507,32.74,23.508L32.74,23.508z"/>
<path style="fill:#FFFFFF;" d="M30.289,29.555c0,0-0.001,0.002-0.002,0.002c-0.348,0.089-0.337,0.45-0.114,0.609&#10;&#9;c-3.672,0-9.307-0.062-10.516-0.062c-0.676,0-2.815-0.081-2.856-0.081c0.459,0.671,1.123,0.808,1.993,0.821&#10;&#9;c1.631,0,9.188-0.02,11.339-0.02c-0.153,0.271,0.014,0.708,0.134,0.788c0.003,0.002,0.007,0.004,0.009,0.005&#10;&#9;c0.004,0.002,0.01,0.004,0.015,0.005c0.001,0,0.004,0,0.005,0c0.142,0.034,0.205-0.069,0.253-0.145&#10;&#9;c0.231,0.02,1.531,0.039,1.65-0.002c0,0,0.001-0.002,0.002-0.002c0.08,0.118,0.16,0.23,0.314,0.211&#10;&#9;c0.268-0.057,0.479-0.087,0.486-0.631c0,0-0.027-0.927-0.636-0.869c-0.144,0.022-0.548,0.062-0.548,0.062&#10;&#9;c-0.468-0.056-0.811-0.061-1.336-0.081c0.049-0.062,0.134-0.311,0.029-0.402c-0.027-0.023-0.068-0.035-0.125-0.031&#10;&#9;c0,0-0.001,0-0.002,0c-0.001,0-0.003,0-0.004,0c0,0-0.001-0.002-0.002-0.002c-0.002-0.001-0.004-0.001-0.005-0.002&#10;&#9;c-0.003-0.002-0.007-0.006-0.009-0.009c-0.001-0.001-0.003-0.003-0.004-0.004c-0.027-0.039-0.041-0.134-0.059-0.158&#10;&#9;c0,0-0.002-0.002-0.002-0.002c0,0-0.002-0.002-0.002-0.002c-0.001,0-0.003-0.002-0.004-0.002c0,0-0.002,0-0.002,0&#10;&#9;C30.29,29.555,30.289,29.555,30.289,29.555L30.289,29.555z"/>
<path style="fill:#FFFFFF;" d="M29.848,31.193c0.001,0,0.001,0,0.002,0c0.536,0.026,1.039,0.005,1.575,0.031&#10;&#9;c0.085,0.072,0.042,0.238-0.013,0.268c-0.002,0.001-0.007,0.003-0.009,0.004c-0.002,0-0.005,0-0.007,0c-0.002,0-0.005,0-0.007,0&#10;&#9;c-0.174-0.004-0.275-0.008-0.449-0.013c0-0.009-0.001-0.018-0.004-0.026c-0.041-0.122-0.34-0.114-0.411-0.018&#10;&#9;c-0.001,0.001-0.003,0.004-0.004,0.005c-0.001,0.002-0.003,0.005-0.004,0.007c-0.001,0.002-0.003,0.007-0.004,0.009&#10;&#9;c-0.001,0.004-0.001,0.009-0.002,0.013c0,0.004-0.002,0.01-0.002,0.015c-0.235,0.028-0.447-0.008-0.682-0.017&#10;&#9;C29.759,31.386,29.767,31.23,29.848,31.193L29.848,31.193z"/>
</svg>